<mxfile host="app.diagrams.net" agent="Mozilla/5.0 (Windows NT 10.0; Win64; x64) AppleWebKit/537.36 (KHTML, like Gecko) Chrome/135.0.0.0 Safari/537.36" version="27.0.4">
  <diagram id="C5RBs43oDa-KdzZeNtuy" name="Page-1">
    <mxGraphModel dx="1114" dy="665" grid="1" gridSize="10" guides="1" tooltips="1" connect="1" arrows="1" fold="1" page="1" pageScale="1" pageWidth="1800" pageHeight="1200" math="0" shadow="0">
      <root>
        <mxCell id="WIyWlLk6GJQsqaUBKTNV-0" />
        <mxCell id="WIyWlLk6GJQsqaUBKTNV-1" parent="WIyWlLk6GJQsqaUBKTNV-0" />
        <mxCell id="zkfFHV4jXpPFQw0GAbJ--0" value="&lt;&lt;entity&gt;&gt;&#xa;User" style="swimlane;fontStyle=0;align=center;verticalAlign=top;childLayout=stackLayout;horizontal=1;startSize=40;horizontalStack=0;resizeParent=1;resizeLast=0;collapsible=1;marginBottom=0;rounded=0;shadow=0;strokeWidth=1;" parent="WIyWlLk6GJQsqaUBKTNV-1" vertex="1">
          <mxGeometry x="800" y="361" width="160" height="140" as="geometry">
            <mxRectangle x="230" y="140" width="160" height="26" as="alternateBounds" />
          </mxGeometry>
        </mxCell>
        <mxCell id="zkfFHV4jXpPFQw0GAbJ--1" value="userId" style="text;align=left;verticalAlign=middle;spacingLeft=4;spacingRight=4;overflow=hidden;rotatable=0;points=[[0,0.5],[1,0.5]];portConstraint=eastwest;" parent="zkfFHV4jXpPFQw0GAbJ--0" vertex="1">
          <mxGeometry y="40" width="160" height="20" as="geometry" />
        </mxCell>
        <mxCell id="zkfFHV4jXpPFQw0GAbJ--2" value="userPassword" style="text;align=left;verticalAlign=middle;spacingLeft=4;spacingRight=4;overflow=hidden;rotatable=0;points=[[0,0.5],[1,0.5]];portConstraint=eastwest;rounded=0;shadow=0;html=0;" parent="zkfFHV4jXpPFQw0GAbJ--0" vertex="1">
          <mxGeometry y="60" width="160" height="20" as="geometry" />
        </mxCell>
        <mxCell id="zkfFHV4jXpPFQw0GAbJ--4" value="" style="line;html=1;strokeWidth=1;align=left;verticalAlign=middle;spacingTop=-1;spacingLeft=3;spacingRight=3;rotatable=0;labelPosition=right;points=[];portConstraint=eastwest;" parent="zkfFHV4jXpPFQw0GAbJ--0" vertex="1">
          <mxGeometry y="80" width="160" height="8" as="geometry" />
        </mxCell>
        <mxCell id="zkfFHV4jXpPFQw0GAbJ--5" value="getUser()" style="text;align=left;verticalAlign=middle;spacingLeft=4;spacingRight=4;overflow=hidden;rotatable=0;points=[[0,0.5],[1,0.5]];portConstraint=eastwest;" parent="zkfFHV4jXpPFQw0GAbJ--0" vertex="1">
          <mxGeometry y="88" width="160" height="22" as="geometry" />
        </mxCell>
        <mxCell id="RLmuX2d9v1kafcQMtOZq-225" value="getUserId()" style="text;align=left;verticalAlign=middle;spacingLeft=4;spacingRight=4;overflow=hidden;rotatable=0;points=[[0,0.5],[1,0.5]];portConstraint=eastwest;" vertex="1" parent="zkfFHV4jXpPFQw0GAbJ--0">
          <mxGeometry y="110" width="160" height="22" as="geometry" />
        </mxCell>
        <mxCell id="zkfFHV4jXpPFQw0GAbJ--17" value="&lt;&lt;boundary&gt;&gt;&#xa;User Interface::AddMemberUI" style="swimlane;fontStyle=0;align=center;verticalAlign=top;childLayout=stackLayout;horizontal=1;startSize=40;horizontalStack=0;resizeParent=1;resizeLast=0;collapsible=1;marginBottom=0;rounded=0;shadow=0;strokeWidth=1;" parent="WIyWlLk6GJQsqaUBKTNV-1" vertex="1">
          <mxGeometry x="1529" y="618" width="172" height="123" as="geometry">
            <mxRectangle x="550" y="140" width="160" height="26" as="alternateBounds" />
          </mxGeometry>
        </mxCell>
        <mxCell id="zkfFHV4jXpPFQw0GAbJ--23" value="" style="line;html=1;strokeWidth=1;align=left;verticalAlign=middle;spacingTop=-1;spacingLeft=3;spacingRight=3;rotatable=0;labelPosition=right;points=[];portConstraint=eastwest;" parent="zkfFHV4jXpPFQw0GAbJ--17" vertex="1">
          <mxGeometry y="40" width="172" height="8" as="geometry" />
        </mxCell>
        <mxCell id="zkfFHV4jXpPFQw0GAbJ--24" value="inputData()" style="text;align=left;verticalAlign=middle;spacingLeft=4;spacingRight=4;overflow=hidden;rotatable=0;points=[[0,0.5],[1,0.5]];portConstraint=eastwest;" parent="zkfFHV4jXpPFQw0GAbJ--17" vertex="1">
          <mxGeometry y="48" width="172" height="22" as="geometry" />
        </mxCell>
        <mxCell id="zkfFHV4jXpPFQw0GAbJ--25" value="displaySignup()" style="text;align=left;verticalAlign=middle;spacingLeft=4;spacingRight=4;overflow=hidden;rotatable=0;points=[[0,0.5],[1,0.5]];portConstraint=eastwest;" parent="zkfFHV4jXpPFQw0GAbJ--17" vertex="1">
          <mxGeometry y="70" width="172" height="20" as="geometry" />
        </mxCell>
        <mxCell id="RLmuX2d9v1kafcQMtOZq-249" value="displaySignupResult()" style="text;align=left;verticalAlign=middle;spacingLeft=4;spacingRight=4;overflow=hidden;rotatable=0;points=[[0,0.5],[1,0.5]];portConstraint=eastwest;" vertex="1" parent="zkfFHV4jXpPFQw0GAbJ--17">
          <mxGeometry y="90" width="172" height="20" as="geometry" />
        </mxCell>
        <mxCell id="RLmuX2d9v1kafcQMtOZq-129" style="edgeStyle=orthogonalEdgeStyle;rounded=0;orthogonalLoop=1;jettySize=auto;html=1;entryX=1;entryY=0.5;entryDx=0;entryDy=0;endArrow=none;startFill=0;" edge="1" parent="WIyWlLk6GJQsqaUBKTNV-1" source="RLmuX2d9v1kafcQMtOZq-5" target="RLmuX2d9v1kafcQMtOZq-26">
          <mxGeometry relative="1" as="geometry" />
        </mxCell>
        <mxCell id="RLmuX2d9v1kafcQMtOZq-5" value="&lt;&lt;entity&gt;&gt;&#xa;Admin" style="swimlane;fontStyle=0;align=center;verticalAlign=top;childLayout=stackLayout;horizontal=1;startSize=40;horizontalStack=0;resizeParent=1;resizeLast=0;collapsible=1;marginBottom=0;rounded=0;shadow=0;strokeWidth=1;" vertex="1" parent="WIyWlLk6GJQsqaUBKTNV-1">
          <mxGeometry x="680" y="603" width="160" height="70" as="geometry">
            <mxRectangle x="230" y="140" width="160" height="26" as="alternateBounds" />
          </mxGeometry>
        </mxCell>
        <mxCell id="RLmuX2d9v1kafcQMtOZq-8" value="" style="line;html=1;strokeWidth=1;align=left;verticalAlign=middle;spacingTop=-1;spacingLeft=3;spacingRight=3;rotatable=0;labelPosition=right;points=[];portConstraint=eastwest;" vertex="1" parent="RLmuX2d9v1kafcQMtOZq-5">
          <mxGeometry y="40" width="160" height="30" as="geometry" />
        </mxCell>
        <mxCell id="RLmuX2d9v1kafcQMtOZq-10" value="&lt;&lt;entity&gt;&gt;&#xa;Member" style="swimlane;fontStyle=0;align=center;verticalAlign=top;childLayout=stackLayout;horizontal=1;startSize=40;horizontalStack=0;resizeParent=1;resizeLast=0;collapsible=1;marginBottom=0;rounded=0;shadow=0;strokeWidth=1;" vertex="1" parent="WIyWlLk6GJQsqaUBKTNV-1">
          <mxGeometry x="920" y="603" width="160" height="137" as="geometry">
            <mxRectangle x="230" y="140" width="160" height="26" as="alternateBounds" />
          </mxGeometry>
        </mxCell>
        <mxCell id="RLmuX2d9v1kafcQMtOZq-11" value="memberPhone" style="text;align=left;verticalAlign=middle;spacingLeft=4;spacingRight=4;overflow=hidden;rotatable=0;points=[[0,0.5],[1,0.5]];portConstraint=eastwest;" vertex="1" parent="RLmuX2d9v1kafcQMtOZq-10">
          <mxGeometry y="40" width="160" height="20" as="geometry" />
        </mxCell>
        <mxCell id="RLmuX2d9v1kafcQMtOZq-305" value="rentalBikeList" style="text;align=left;verticalAlign=middle;spacingLeft=4;spacingRight=4;overflow=hidden;rotatable=0;points=[[0,0.5],[1,0.5]];portConstraint=eastwest;" vertex="1" parent="RLmuX2d9v1kafcQMtOZq-10">
          <mxGeometry y="60" width="160" height="20" as="geometry" />
        </mxCell>
        <mxCell id="RLmuX2d9v1kafcQMtOZq-13" value="" style="line;html=1;strokeWidth=1;align=left;verticalAlign=middle;spacingTop=-1;spacingLeft=3;spacingRight=3;rotatable=0;labelPosition=right;points=[];portConstraint=eastwest;" vertex="1" parent="RLmuX2d9v1kafcQMtOZq-10">
          <mxGeometry y="80" width="160" height="10" as="geometry" />
        </mxCell>
        <mxCell id="RLmuX2d9v1kafcQMtOZq-14" value="addRentalBike()" style="text;align=left;verticalAlign=middle;spacingLeft=4;spacingRight=4;overflow=hidden;rotatable=0;points=[[0,0.5],[1,0.5]];portConstraint=eastwest;" vertex="1" parent="RLmuX2d9v1kafcQMtOZq-10">
          <mxGeometry y="90" width="160" height="22" as="geometry" />
        </mxCell>
        <mxCell id="RLmuX2d9v1kafcQMtOZq-15" value="getRentalBikeList()" style="text;align=left;verticalAlign=middle;spacingLeft=4;spacingRight=4;overflow=hidden;rotatable=0;points=[[0,0.5],[1,0.5]];portConstraint=eastwest;" vertex="1" parent="RLmuX2d9v1kafcQMtOZq-10">
          <mxGeometry y="112" width="160" height="22" as="geometry" />
        </mxCell>
        <mxCell id="RLmuX2d9v1kafcQMtOZq-16" value="&lt;&lt;boundary&gt;&gt;&#xa;User Interface::LoginUI" style="swimlane;fontStyle=0;align=center;verticalAlign=top;childLayout=stackLayout;horizontal=1;startSize=40;horizontalStack=0;resizeParent=1;resizeLast=0;collapsible=1;marginBottom=0;rounded=0;shadow=0;strokeWidth=1;" vertex="1" parent="WIyWlLk6GJQsqaUBKTNV-1">
          <mxGeometry x="174" y="143" width="172" height="120" as="geometry">
            <mxRectangle x="550" y="140" width="160" height="26" as="alternateBounds" />
          </mxGeometry>
        </mxCell>
        <mxCell id="RLmuX2d9v1kafcQMtOZq-17" value="" style="line;html=1;strokeWidth=1;align=left;verticalAlign=middle;spacingTop=-1;spacingLeft=3;spacingRight=3;rotatable=0;labelPosition=right;points=[];portConstraint=eastwest;" vertex="1" parent="RLmuX2d9v1kafcQMtOZq-16">
          <mxGeometry y="40" width="172" height="8" as="geometry" />
        </mxCell>
        <mxCell id="RLmuX2d9v1kafcQMtOZq-18" value="inputData()" style="text;align=left;verticalAlign=middle;spacingLeft=4;spacingRight=4;overflow=hidden;rotatable=0;points=[[0,0.5],[1,0.5]];portConstraint=eastwest;" vertex="1" parent="RLmuX2d9v1kafcQMtOZq-16">
          <mxGeometry y="48" width="172" height="22" as="geometry" />
        </mxCell>
        <mxCell id="RLmuX2d9v1kafcQMtOZq-19" value="displayLogin()" style="text;align=left;verticalAlign=middle;spacingLeft=4;spacingRight=4;overflow=hidden;rotatable=0;points=[[0,0.5],[1,0.5]];portConstraint=eastwest;" vertex="1" parent="RLmuX2d9v1kafcQMtOZq-16">
          <mxGeometry y="70" width="172" height="20" as="geometry" />
        </mxCell>
        <mxCell id="RLmuX2d9v1kafcQMtOZq-228" value="displayLoginResult()" style="text;align=left;verticalAlign=middle;spacingLeft=4;spacingRight=4;overflow=hidden;rotatable=0;points=[[0,0.5],[1,0.5]];portConstraint=eastwest;" vertex="1" parent="RLmuX2d9v1kafcQMtOZq-16">
          <mxGeometry y="90" width="172" height="20" as="geometry" />
        </mxCell>
        <mxCell id="RLmuX2d9v1kafcQMtOZq-236" style="edgeStyle=orthogonalEdgeStyle;rounded=0;orthogonalLoop=1;jettySize=auto;html=1;endArrow=none;startFill=0;" edge="1" parent="WIyWlLk6GJQsqaUBKTNV-1">
          <mxGeometry relative="1" as="geometry">
            <mxPoint x="966.0000000000002" y="187.75564102564098" as="sourcePoint" />
            <mxPoint x="1098" y="187.75564102564098" as="targetPoint" />
            <Array as="points">
              <mxPoint x="1054" y="187.73" />
              <mxPoint x="1054" y="187.73" />
            </Array>
          </mxGeometry>
        </mxCell>
        <mxCell id="RLmuX2d9v1kafcQMtOZq-20" value="&lt;&lt;boundary&gt;&gt;&#xa;User Interface::LogoutUI" style="swimlane;fontStyle=0;align=center;verticalAlign=top;childLayout=stackLayout;horizontal=1;startSize=40;horizontalStack=0;resizeParent=1;resizeLast=0;collapsible=1;marginBottom=0;rounded=0;shadow=0;strokeWidth=1;" vertex="1" parent="WIyWlLk6GJQsqaUBKTNV-1">
          <mxGeometry x="794" y="143" width="172" height="78" as="geometry">
            <mxRectangle x="550" y="140" width="160" height="26" as="alternateBounds" />
          </mxGeometry>
        </mxCell>
        <mxCell id="RLmuX2d9v1kafcQMtOZq-21" value="" style="line;html=1;strokeWidth=1;align=left;verticalAlign=middle;spacingTop=-1;spacingLeft=3;spacingRight=3;rotatable=0;labelPosition=right;points=[];portConstraint=eastwest;" vertex="1" parent="RLmuX2d9v1kafcQMtOZq-20">
          <mxGeometry y="40" width="172" height="8" as="geometry" />
        </mxCell>
        <mxCell id="RLmuX2d9v1kafcQMtOZq-23" value="displayLogoutResult()" style="text;align=left;verticalAlign=middle;spacingLeft=4;spacingRight=4;overflow=hidden;rotatable=0;points=[[0,0.5],[1,0.5]];portConstraint=eastwest;" vertex="1" parent="RLmuX2d9v1kafcQMtOZq-20">
          <mxGeometry y="48" width="172" height="20" as="geometry" />
        </mxCell>
        <mxCell id="RLmuX2d9v1kafcQMtOZq-131" style="edgeStyle=orthogonalEdgeStyle;rounded=0;orthogonalLoop=1;jettySize=auto;html=1;entryX=0.5;entryY=1;entryDx=0;entryDy=0;endArrow=none;startFill=0;" edge="1" parent="WIyWlLk6GJQsqaUBKTNV-1" source="RLmuX2d9v1kafcQMtOZq-24" target="RLmuX2d9v1kafcQMtOZq-56">
          <mxGeometry relative="1" as="geometry" />
        </mxCell>
        <mxCell id="RLmuX2d9v1kafcQMtOZq-24" value="&lt;&lt;boundary&gt;&gt;&#xa;User Interface::AddBikeUI" style="swimlane;fontStyle=0;align=center;verticalAlign=top;childLayout=stackLayout;horizontal=1;startSize=40;horizontalStack=0;resizeParent=1;resizeLast=0;collapsible=1;marginBottom=0;rounded=0;shadow=0;strokeWidth=1;" vertex="1" parent="WIyWlLk6GJQsqaUBKTNV-1">
          <mxGeometry x="346" y="579" width="172" height="122" as="geometry">
            <mxRectangle x="550" y="140" width="160" height="26" as="alternateBounds" />
          </mxGeometry>
        </mxCell>
        <mxCell id="RLmuX2d9v1kafcQMtOZq-25" value="" style="line;html=1;strokeWidth=1;align=left;verticalAlign=middle;spacingTop=-1;spacingLeft=3;spacingRight=3;rotatable=0;labelPosition=right;points=[];portConstraint=eastwest;" vertex="1" parent="RLmuX2d9v1kafcQMtOZq-24">
          <mxGeometry y="40" width="172" height="8" as="geometry" />
        </mxCell>
        <mxCell id="RLmuX2d9v1kafcQMtOZq-26" value="inputData()" style="text;align=left;verticalAlign=middle;spacingLeft=4;spacingRight=4;overflow=hidden;rotatable=0;points=[[0,0.5],[1,0.5]];portConstraint=eastwest;" vertex="1" parent="RLmuX2d9v1kafcQMtOZq-24">
          <mxGeometry y="48" width="172" height="22" as="geometry" />
        </mxCell>
        <mxCell id="RLmuX2d9v1kafcQMtOZq-27" value="displayAddBike()" style="text;align=left;verticalAlign=middle;spacingLeft=4;spacingRight=4;overflow=hidden;rotatable=0;points=[[0,0.5],[1,0.5]];portConstraint=eastwest;" vertex="1" parent="RLmuX2d9v1kafcQMtOZq-24">
          <mxGeometry y="70" width="172" height="20" as="geometry" />
        </mxCell>
        <mxCell id="RLmuX2d9v1kafcQMtOZq-243" value="displayAddBikeResult()" style="text;align=left;verticalAlign=middle;spacingLeft=4;spacingRight=4;overflow=hidden;rotatable=0;points=[[0,0.5],[1,0.5]];portConstraint=eastwest;" vertex="1" parent="RLmuX2d9v1kafcQMtOZq-24">
          <mxGeometry y="90" width="172" height="20" as="geometry" />
        </mxCell>
        <mxCell id="RLmuX2d9v1kafcQMtOZq-28" value="&lt;&lt;boundary&gt;&gt;&#xa;User Interface::RentBikeUI" style="swimlane;fontStyle=0;align=center;verticalAlign=top;childLayout=stackLayout;horizontal=1;startSize=40;horizontalStack=0;resizeParent=1;resizeLast=0;collapsible=1;marginBottom=0;rounded=0;shadow=0;strokeWidth=1;" vertex="1" parent="WIyWlLk6GJQsqaUBKTNV-1">
          <mxGeometry x="694" y="961" width="172" height="120" as="geometry">
            <mxRectangle x="550" y="140" width="160" height="26" as="alternateBounds" />
          </mxGeometry>
        </mxCell>
        <mxCell id="RLmuX2d9v1kafcQMtOZq-29" value="" style="line;html=1;strokeWidth=1;align=left;verticalAlign=middle;spacingTop=-1;spacingLeft=3;spacingRight=3;rotatable=0;labelPosition=right;points=[];portConstraint=eastwest;" vertex="1" parent="RLmuX2d9v1kafcQMtOZq-28">
          <mxGeometry y="40" width="172" height="8" as="geometry" />
        </mxCell>
        <mxCell id="RLmuX2d9v1kafcQMtOZq-30" value="inputData()" style="text;align=left;verticalAlign=middle;spacingLeft=4;spacingRight=4;overflow=hidden;rotatable=0;points=[[0,0.5],[1,0.5]];portConstraint=eastwest;" vertex="1" parent="RLmuX2d9v1kafcQMtOZq-28">
          <mxGeometry y="48" width="172" height="22" as="geometry" />
        </mxCell>
        <mxCell id="RLmuX2d9v1kafcQMtOZq-31" value="displayRentBike()" style="text;align=left;verticalAlign=middle;spacingLeft=4;spacingRight=4;overflow=hidden;rotatable=0;points=[[0,0.5],[1,0.5]];portConstraint=eastwest;" vertex="1" parent="RLmuX2d9v1kafcQMtOZq-28">
          <mxGeometry y="70" width="172" height="20" as="geometry" />
        </mxCell>
        <mxCell id="RLmuX2d9v1kafcQMtOZq-244" value="displayRentBikeResult()" style="text;align=left;verticalAlign=middle;spacingLeft=4;spacingRight=4;overflow=hidden;rotatable=0;points=[[0,0.5],[1,0.5]];portConstraint=eastwest;" vertex="1" parent="RLmuX2d9v1kafcQMtOZq-28">
          <mxGeometry y="90" width="172" height="20" as="geometry" />
        </mxCell>
        <mxCell id="RLmuX2d9v1kafcQMtOZq-32" value="&lt;&lt;boundary&gt;&gt;&#xa;User Interface::RentBikeListUI" style="swimlane;fontStyle=0;align=center;verticalAlign=top;childLayout=stackLayout;horizontal=1;startSize=40;horizontalStack=0;resizeParent=1;resizeLast=0;collapsible=1;marginBottom=0;rounded=0;shadow=0;strokeWidth=1;" vertex="1" parent="WIyWlLk6GJQsqaUBKTNV-1">
          <mxGeometry x="1237" y="781" width="172" height="80" as="geometry">
            <mxRectangle x="550" y="140" width="160" height="26" as="alternateBounds" />
          </mxGeometry>
        </mxCell>
        <mxCell id="RLmuX2d9v1kafcQMtOZq-33" value="" style="line;html=1;strokeWidth=1;align=left;verticalAlign=middle;spacingTop=-1;spacingLeft=3;spacingRight=3;rotatable=0;labelPosition=right;points=[];portConstraint=eastwest;" vertex="1" parent="RLmuX2d9v1kafcQMtOZq-32">
          <mxGeometry y="40" width="172" height="8" as="geometry" />
        </mxCell>
        <mxCell id="RLmuX2d9v1kafcQMtOZq-35" value="displayRentBikeList()" style="text;align=left;verticalAlign=middle;spacingLeft=4;spacingRight=4;overflow=hidden;rotatable=0;points=[[0,0.5],[1,0.5]];portConstraint=eastwest;" vertex="1" parent="RLmuX2d9v1kafcQMtOZq-32">
          <mxGeometry y="48" width="172" height="20" as="geometry" />
        </mxCell>
        <mxCell id="RLmuX2d9v1kafcQMtOZq-193" style="edgeStyle=orthogonalEdgeStyle;rounded=0;orthogonalLoop=1;jettySize=auto;html=1;endArrow=none;startFill=0;exitX=0;exitY=0.5;exitDx=0;exitDy=0;" edge="1" parent="WIyWlLk6GJQsqaUBKTNV-1" source="RLmuX2d9v1kafcQMtOZq-36">
          <mxGeometry relative="1" as="geometry">
            <mxPoint x="1080" y="668" as="targetPoint" />
            <mxPoint x="1227" y="668.0285714285714" as="sourcePoint" />
            <Array as="points" />
          </mxGeometry>
        </mxCell>
        <mxCell id="RLmuX2d9v1kafcQMtOZq-36" value="&lt;&lt;control&gt;&gt;&#xa;Control::AddMember" style="swimlane;fontStyle=0;align=center;verticalAlign=top;childLayout=stackLayout;horizontal=1;startSize=40;horizontalStack=0;resizeParent=1;resizeLast=0;collapsible=1;marginBottom=0;rounded=0;shadow=0;strokeWidth=1;" vertex="1" parent="WIyWlLk6GJQsqaUBKTNV-1">
          <mxGeometry x="1231" y="628" width="160" height="80" as="geometry">
            <mxRectangle x="230" y="140" width="160" height="26" as="alternateBounds" />
          </mxGeometry>
        </mxCell>
        <mxCell id="RLmuX2d9v1kafcQMtOZq-38" value="" style="line;html=1;strokeWidth=1;align=left;verticalAlign=middle;spacingTop=-1;spacingLeft=3;spacingRight=3;rotatable=0;labelPosition=right;points=[];portConstraint=eastwest;" vertex="1" parent="RLmuX2d9v1kafcQMtOZq-36">
          <mxGeometry y="40" width="160" height="8" as="geometry" />
        </mxCell>
        <mxCell id="RLmuX2d9v1kafcQMtOZq-39" value="addNewMember()" style="text;align=left;verticalAlign=middle;spacingLeft=4;spacingRight=4;overflow=hidden;rotatable=0;points=[[0,0.5],[1,0.5]];portConstraint=eastwest;" vertex="1" parent="RLmuX2d9v1kafcQMtOZq-36">
          <mxGeometry y="48" width="160" height="22" as="geometry" />
        </mxCell>
        <mxCell id="RLmuX2d9v1kafcQMtOZq-136" style="edgeStyle=orthogonalEdgeStyle;rounded=0;orthogonalLoop=1;jettySize=auto;html=1;entryX=0;entryY=0.5;entryDx=0;entryDy=0;endArrow=none;startFill=0;" edge="1" parent="WIyWlLk6GJQsqaUBKTNV-1" source="RLmuX2d9v1kafcQMtOZq-41" target="RLmuX2d9v1kafcQMtOZq-62">
          <mxGeometry relative="1" as="geometry">
            <Array as="points">
              <mxPoint x="534" y="311" />
              <mxPoint x="174" y="311" />
              <mxPoint x="174" y="861" />
            </Array>
          </mxGeometry>
        </mxCell>
        <mxCell id="RLmuX2d9v1kafcQMtOZq-41" value="&lt;&lt;control&gt;&gt;&#xa;Control::Session" style="swimlane;fontStyle=0;align=center;verticalAlign=top;childLayout=stackLayout;horizontal=1;startSize=40;horizontalStack=0;resizeParent=1;resizeLast=0;collapsible=1;marginBottom=0;rounded=0;shadow=0;strokeWidth=1;" vertex="1" parent="WIyWlLk6GJQsqaUBKTNV-1">
          <mxGeometry x="494" y="111" width="160" height="160" as="geometry">
            <mxRectangle x="230" y="140" width="160" height="26" as="alternateBounds" />
          </mxGeometry>
        </mxCell>
        <mxCell id="RLmuX2d9v1kafcQMtOZq-44" value="currentUser" style="text;align=left;verticalAlign=middle;spacingLeft=4;spacingRight=4;overflow=hidden;rotatable=0;points=[[0,0.5],[1,0.5]];portConstraint=eastwest;" vertex="1" parent="RLmuX2d9v1kafcQMtOZq-41">
          <mxGeometry y="40" width="160" height="22" as="geometry" />
        </mxCell>
        <mxCell id="RLmuX2d9v1kafcQMtOZq-42" value="" style="line;html=1;strokeWidth=1;align=left;verticalAlign=middle;spacingTop=-1;spacingLeft=3;spacingRight=3;rotatable=0;labelPosition=right;points=[];portConstraint=eastwest;" vertex="1" parent="RLmuX2d9v1kafcQMtOZq-41">
          <mxGeometry y="62" width="160" height="8" as="geometry" />
        </mxCell>
        <mxCell id="RLmuX2d9v1kafcQMtOZq-43" value="login()" style="text;align=left;verticalAlign=middle;spacingLeft=4;spacingRight=4;overflow=hidden;rotatable=0;points=[[0,0.5],[1,0.5]];portConstraint=eastwest;" vertex="1" parent="RLmuX2d9v1kafcQMtOZq-41">
          <mxGeometry y="70" width="160" height="22" as="geometry" />
        </mxCell>
        <mxCell id="RLmuX2d9v1kafcQMtOZq-45" value="logout()" style="text;align=left;verticalAlign=middle;spacingLeft=4;spacingRight=4;overflow=hidden;rotatable=0;points=[[0,0.5],[1,0.5]];portConstraint=eastwest;" vertex="1" parent="RLmuX2d9v1kafcQMtOZq-41">
          <mxGeometry y="92" width="160" height="22" as="geometry" />
        </mxCell>
        <mxCell id="RLmuX2d9v1kafcQMtOZq-46" value="getCurrentUser()" style="text;align=left;verticalAlign=middle;spacingLeft=4;spacingRight=4;overflow=hidden;rotatable=0;points=[[0,0.5],[1,0.5]];portConstraint=eastwest;" vertex="1" parent="RLmuX2d9v1kafcQMtOZq-41">
          <mxGeometry y="114" width="160" height="22" as="geometry" />
        </mxCell>
        <mxCell id="RLmuX2d9v1kafcQMtOZq-235" value="resetCurrentUser()" style="text;align=left;verticalAlign=middle;spacingLeft=4;spacingRight=4;overflow=hidden;rotatable=0;points=[[0,0.5],[1,0.5]];portConstraint=eastwest;" vertex="1" parent="RLmuX2d9v1kafcQMtOZq-41">
          <mxGeometry y="136" width="160" height="22" as="geometry" />
        </mxCell>
        <mxCell id="RLmuX2d9v1kafcQMtOZq-247" style="edgeStyle=orthogonalEdgeStyle;rounded=0;orthogonalLoop=1;jettySize=auto;html=1;entryX=0;entryY=0;entryDx=0;entryDy=0;endArrow=none;startFill=0;" edge="1" parent="WIyWlLk6GJQsqaUBKTNV-1" source="RLmuX2d9v1kafcQMtOZq-56" target="RLmuX2d9v1kafcQMtOZq-234">
          <mxGeometry relative="1" as="geometry">
            <mxPoint x="564" y="271" as="targetPoint" />
            <Array as="points">
              <mxPoint x="574" y="421" />
            </Array>
          </mxGeometry>
        </mxCell>
        <mxCell id="RLmuX2d9v1kafcQMtOZq-56" value="&lt;&lt;control&gt;&gt;&#xa;Control::AddBike" style="swimlane;fontStyle=0;align=center;verticalAlign=top;childLayout=stackLayout;horizontal=1;startSize=40;horizontalStack=0;resizeParent=1;resizeLast=0;collapsible=1;marginBottom=0;rounded=0;shadow=0;strokeWidth=1;" vertex="1" parent="WIyWlLk6GJQsqaUBKTNV-1">
          <mxGeometry x="352" y="381" width="160" height="80" as="geometry">
            <mxRectangle x="230" y="140" width="160" height="26" as="alternateBounds" />
          </mxGeometry>
        </mxCell>
        <mxCell id="RLmuX2d9v1kafcQMtOZq-58" value="" style="line;html=1;strokeWidth=1;align=left;verticalAlign=middle;spacingTop=-1;spacingLeft=3;spacingRight=3;rotatable=0;labelPosition=right;points=[];portConstraint=eastwest;" vertex="1" parent="RLmuX2d9v1kafcQMtOZq-56">
          <mxGeometry y="40" width="160" height="8" as="geometry" />
        </mxCell>
        <mxCell id="RLmuX2d9v1kafcQMtOZq-59" value="addNewBike()" style="text;align=left;verticalAlign=middle;spacingLeft=4;spacingRight=4;overflow=hidden;rotatable=0;points=[[0,0.5],[1,0.5]];portConstraint=eastwest;" vertex="1" parent="RLmuX2d9v1kafcQMtOZq-56">
          <mxGeometry y="48" width="160" height="22" as="geometry" />
        </mxCell>
        <mxCell id="RLmuX2d9v1kafcQMtOZq-245" style="edgeStyle=orthogonalEdgeStyle;rounded=0;orthogonalLoop=1;jettySize=auto;html=1;endArrow=none;startFill=0;" edge="1" parent="WIyWlLk6GJQsqaUBKTNV-1" source="RLmuX2d9v1kafcQMtOZq-62">
          <mxGeometry relative="1" as="geometry">
            <mxPoint x="694" y="1051" as="targetPoint" />
            <Array as="points">
              <mxPoint x="604" y="1011" />
              <mxPoint x="694" y="1011" />
            </Array>
          </mxGeometry>
        </mxCell>
        <mxCell id="RLmuX2d9v1kafcQMtOZq-311" style="edgeStyle=orthogonalEdgeStyle;rounded=0;orthogonalLoop=1;jettySize=auto;html=1;entryX=0;entryY=1;entryDx=0;entryDy=0;endArrow=none;startFill=0;" edge="1" parent="WIyWlLk6GJQsqaUBKTNV-1" source="RLmuX2d9v1kafcQMtOZq-62" target="RLmuX2d9v1kafcQMtOZq-168">
          <mxGeometry relative="1" as="geometry">
            <Array as="points">
              <mxPoint x="592" y="1010" />
              <mxPoint x="334" y="1010" />
            </Array>
          </mxGeometry>
        </mxCell>
        <mxCell id="RLmuX2d9v1kafcQMtOZq-62" value="&lt;&lt;control&gt;&gt;&#xa;Control::RentBike" style="swimlane;fontStyle=0;align=center;verticalAlign=top;childLayout=stackLayout;horizontal=1;startSize=40;horizontalStack=0;resizeParent=1;resizeLast=0;collapsible=1;marginBottom=0;rounded=0;shadow=0;strokeWidth=1;" vertex="1" parent="WIyWlLk6GJQsqaUBKTNV-1">
          <mxGeometry x="512" y="821" width="160" height="80" as="geometry">
            <mxRectangle x="230" y="140" width="160" height="26" as="alternateBounds" />
          </mxGeometry>
        </mxCell>
        <mxCell id="RLmuX2d9v1kafcQMtOZq-63" value="" style="line;html=1;strokeWidth=1;align=left;verticalAlign=middle;spacingTop=-1;spacingLeft=3;spacingRight=3;rotatable=0;labelPosition=right;points=[];portConstraint=eastwest;" vertex="1" parent="RLmuX2d9v1kafcQMtOZq-62">
          <mxGeometry y="40" width="160" height="8" as="geometry" />
        </mxCell>
        <mxCell id="RLmuX2d9v1kafcQMtOZq-64" value="rentalBike()" style="text;align=left;verticalAlign=middle;spacingLeft=4;spacingRight=4;overflow=hidden;rotatable=0;points=[[0,0.5],[1,0.5]];portConstraint=eastwest;" vertex="1" parent="RLmuX2d9v1kafcQMtOZq-62">
          <mxGeometry y="48" width="160" height="22" as="geometry" />
        </mxCell>
        <mxCell id="RLmuX2d9v1kafcQMtOZq-147" style="edgeStyle=orthogonalEdgeStyle;rounded=0;orthogonalLoop=1;jettySize=auto;html=1;entryX=0.5;entryY=1;entryDx=0;entryDy=0;endArrow=none;startFill=0;exitX=1;exitY=0.5;exitDx=0;exitDy=0;" edge="1" parent="WIyWlLk6GJQsqaUBKTNV-1" source="RLmuX2d9v1kafcQMtOZq-65" target="RLmuX2d9v1kafcQMtOZq-32">
          <mxGeometry relative="1" as="geometry">
            <mxPoint x="1134" y="1046" as="sourcePoint" />
          </mxGeometry>
        </mxCell>
        <mxCell id="RLmuX2d9v1kafcQMtOZq-65" value="&lt;&lt;control&gt;&gt;&#xa;Control::RentBikeList" style="swimlane;fontStyle=0;align=center;verticalAlign=top;childLayout=stackLayout;horizontal=1;startSize=40;horizontalStack=0;resizeParent=1;resizeLast=0;collapsible=1;marginBottom=0;rounded=0;shadow=0;strokeWidth=1;" vertex="1" parent="WIyWlLk6GJQsqaUBKTNV-1">
          <mxGeometry x="966" y="1011" width="160" height="79" as="geometry">
            <mxRectangle x="230" y="140" width="160" height="26" as="alternateBounds" />
          </mxGeometry>
        </mxCell>
        <mxCell id="RLmuX2d9v1kafcQMtOZq-66" value="" style="line;html=1;strokeWidth=1;align=left;verticalAlign=middle;spacingTop=-1;spacingLeft=3;spacingRight=3;rotatable=0;labelPosition=right;points=[];portConstraint=eastwest;" vertex="1" parent="RLmuX2d9v1kafcQMtOZq-65">
          <mxGeometry y="40" width="160" height="10" as="geometry" />
        </mxCell>
        <mxCell id="RLmuX2d9v1kafcQMtOZq-325" value="listRentBike()" style="text;align=left;verticalAlign=middle;spacingLeft=4;spacingRight=4;overflow=hidden;rotatable=0;points=[[0,0.5],[1,0.5]];portConstraint=eastwest;" vertex="1" parent="RLmuX2d9v1kafcQMtOZq-65">
          <mxGeometry y="50" width="160" height="20" as="geometry" />
        </mxCell>
        <mxCell id="RLmuX2d9v1kafcQMtOZq-73" value="&lt;&lt;entity&gt;&gt;&#xa;Bike" style="swimlane;fontStyle=0;align=center;verticalAlign=top;childLayout=stackLayout;horizontal=1;startSize=40;horizontalStack=0;resizeParent=1;resizeLast=0;collapsible=1;marginBottom=0;rounded=0;shadow=0;strokeWidth=1;" vertex="1" parent="WIyWlLk6GJQsqaUBKTNV-1">
          <mxGeometry x="174" y="931" width="160" height="180" as="geometry">
            <mxRectangle x="230" y="140" width="160" height="26" as="alternateBounds" />
          </mxGeometry>
        </mxCell>
        <mxCell id="RLmuX2d9v1kafcQMtOZq-74" value="bikeId" style="text;align=left;verticalAlign=middle;spacingLeft=4;spacingRight=4;overflow=hidden;rotatable=0;points=[[0,0.5],[1,0.5]];portConstraint=eastwest;" vertex="1" parent="RLmuX2d9v1kafcQMtOZq-73">
          <mxGeometry y="40" width="160" height="20" as="geometry" />
        </mxCell>
        <mxCell id="RLmuX2d9v1kafcQMtOZq-75" value="bikeName" style="text;align=left;verticalAlign=middle;spacingLeft=4;spacingRight=4;overflow=hidden;rotatable=0;points=[[0,0.5],[1,0.5]];portConstraint=eastwest;rounded=0;shadow=0;html=0;" vertex="1" parent="RLmuX2d9v1kafcQMtOZq-73">
          <mxGeometry y="60" width="160" height="20" as="geometry" />
        </mxCell>
        <mxCell id="RLmuX2d9v1kafcQMtOZq-252" value="rentMember" style="text;align=left;verticalAlign=middle;spacingLeft=4;spacingRight=4;overflow=hidden;rotatable=0;points=[[0,0.5],[1,0.5]];portConstraint=eastwest;rounded=0;shadow=0;html=0;" vertex="1" parent="RLmuX2d9v1kafcQMtOZq-73">
          <mxGeometry y="80" width="160" height="20" as="geometry" />
        </mxCell>
        <mxCell id="RLmuX2d9v1kafcQMtOZq-76" value="" style="line;html=1;strokeWidth=1;align=left;verticalAlign=middle;spacingTop=-1;spacingLeft=3;spacingRight=3;rotatable=0;labelPosition=right;points=[];portConstraint=eastwest;" vertex="1" parent="RLmuX2d9v1kafcQMtOZq-73">
          <mxGeometry y="100" width="160" height="8" as="geometry" />
        </mxCell>
        <mxCell id="RLmuX2d9v1kafcQMtOZq-77" value="getBike()" style="text;align=left;verticalAlign=middle;spacingLeft=4;spacingRight=4;overflow=hidden;rotatable=0;points=[[0,0.5],[1,0.5]];portConstraint=eastwest;" vertex="1" parent="RLmuX2d9v1kafcQMtOZq-73">
          <mxGeometry y="108" width="160" height="22" as="geometry" />
        </mxCell>
        <mxCell id="RLmuX2d9v1kafcQMtOZq-78" value="getBikeId()" style="text;align=left;verticalAlign=middle;spacingLeft=4;spacingRight=4;overflow=hidden;rotatable=0;points=[[0,0.5],[1,0.5]];portConstraint=eastwest;" vertex="1" parent="RLmuX2d9v1kafcQMtOZq-73">
          <mxGeometry y="130" width="160" height="22" as="geometry" />
        </mxCell>
        <mxCell id="RLmuX2d9v1kafcQMtOZq-79" value="setRentMember()" style="text;align=left;verticalAlign=middle;spacingLeft=4;spacingRight=4;overflow=hidden;rotatable=0;points=[[0,0.5],[1,0.5]];portConstraint=eastwest;" vertex="1" parent="RLmuX2d9v1kafcQMtOZq-73">
          <mxGeometry y="152" width="160" height="22" as="geometry" />
        </mxCell>
        <mxCell id="RLmuX2d9v1kafcQMtOZq-80" value="" style="endArrow=block;endSize=16;endFill=0;html=1;rounded=0;edgeStyle=orthogonalEdgeStyle;entryX=0.5;entryY=1;entryDx=0;entryDy=0;" edge="1" parent="WIyWlLk6GJQsqaUBKTNV-1" target="zkfFHV4jXpPFQw0GAbJ--0">
          <mxGeometry width="160" relative="1" as="geometry">
            <mxPoint x="784" y="603" as="sourcePoint" />
            <mxPoint x="870" y="563" as="targetPoint" />
            <Array as="points">
              <mxPoint x="784" y="603" />
              <mxPoint x="784" y="552" />
              <mxPoint x="880" y="552" />
            </Array>
          </mxGeometry>
        </mxCell>
        <mxCell id="RLmuX2d9v1kafcQMtOZq-81" value="" style="endArrow=block;endSize=16;endFill=0;html=1;rounded=0;edgeStyle=orthogonalEdgeStyle;" edge="1" parent="WIyWlLk6GJQsqaUBKTNV-1">
          <mxGeometry width="160" relative="1" as="geometry">
            <mxPoint x="980" y="603" as="sourcePoint" />
            <mxPoint x="880" y="501" as="targetPoint" />
            <Array as="points">
              <mxPoint x="980" y="603" />
              <mxPoint x="980" y="552" />
              <mxPoint x="880" y="552" />
            </Array>
          </mxGeometry>
        </mxCell>
        <mxCell id="RLmuX2d9v1kafcQMtOZq-103" value="1" style="text;strokeColor=none;align=center;fillColor=none;html=1;verticalAlign=middle;whiteSpace=wrap;rounded=0;" vertex="1" parent="WIyWlLk6GJQsqaUBKTNV-1">
          <mxGeometry x="1391" y="648" width="18" height="20" as="geometry" />
        </mxCell>
        <mxCell id="RLmuX2d9v1kafcQMtOZq-104" value="1" style="text;strokeColor=none;align=center;fillColor=none;html=1;verticalAlign=middle;whiteSpace=wrap;rounded=0;" vertex="1" parent="WIyWlLk6GJQsqaUBKTNV-1">
          <mxGeometry x="1511" y="648" width="18" height="20" as="geometry" />
        </mxCell>
        <mxCell id="RLmuX2d9v1kafcQMtOZq-105" value="" style="line;strokeWidth=1;fillColor=none;align=left;verticalAlign=middle;spacingTop=-1;spacingLeft=3;spacingRight=3;rotatable=0;labelPosition=right;points=[];portConstraint=eastwest;strokeColor=inherit;" vertex="1" parent="WIyWlLk6GJQsqaUBKTNV-1">
          <mxGeometry x="1391" y="664" width="138" height="8" as="geometry" />
        </mxCell>
        <mxCell id="RLmuX2d9v1kafcQMtOZq-127" style="edgeStyle=orthogonalEdgeStyle;rounded=0;orthogonalLoop=1;jettySize=auto;html=1;entryX=0;entryY=0.5;entryDx=0;entryDy=0;endArrow=none;startFill=0;" edge="1" parent="WIyWlLk6GJQsqaUBKTNV-1" source="RLmuX2d9v1kafcQMtOZq-18" target="RLmuX2d9v1kafcQMtOZq-43">
          <mxGeometry relative="1" as="geometry">
            <Array as="points">
              <mxPoint x="494" y="201" />
            </Array>
          </mxGeometry>
        </mxCell>
        <mxCell id="RLmuX2d9v1kafcQMtOZq-154" value="1" style="text;strokeColor=none;align=center;fillColor=none;html=1;verticalAlign=middle;whiteSpace=wrap;rounded=0;" vertex="1" parent="WIyWlLk6GJQsqaUBKTNV-1">
          <mxGeometry x="346" y="181" width="18" height="20" as="geometry" />
        </mxCell>
        <mxCell id="RLmuX2d9v1kafcQMtOZq-155" value="1" style="text;strokeColor=none;align=center;fillColor=none;html=1;verticalAlign=middle;whiteSpace=wrap;rounded=0;" vertex="1" parent="WIyWlLk6GJQsqaUBKTNV-1">
          <mxGeometry x="476" y="181" width="18" height="20" as="geometry" />
        </mxCell>
        <mxCell id="RLmuX2d9v1kafcQMtOZq-158" value="1" style="text;strokeColor=none;align=center;fillColor=none;html=1;verticalAlign=middle;whiteSpace=wrap;rounded=0;" vertex="1" parent="WIyWlLk6GJQsqaUBKTNV-1">
          <mxGeometry x="512" y="421" width="18" height="20" as="geometry" />
        </mxCell>
        <mxCell id="RLmuX2d9v1kafcQMtOZq-161" value="1" style="text;strokeColor=none;align=center;fillColor=none;html=1;verticalAlign=middle;whiteSpace=wrap;rounded=0;" vertex="1" parent="WIyWlLk6GJQsqaUBKTNV-1">
          <mxGeometry x="534" y="271" width="18" height="20" as="geometry" />
        </mxCell>
        <mxCell id="RLmuX2d9v1kafcQMtOZq-162" value="1" style="text;strokeColor=none;align=center;fillColor=none;html=1;verticalAlign=middle;whiteSpace=wrap;rounded=0;" vertex="1" parent="WIyWlLk6GJQsqaUBKTNV-1">
          <mxGeometry x="494" y="841" width="18" height="20" as="geometry" />
        </mxCell>
        <mxCell id="RLmuX2d9v1kafcQMtOZq-163" value="" style="endArrow=diamondThin;endFill=0;endSize=24;html=1;rounded=0;exitX=0.25;exitY=0;exitDx=0;exitDy=0;" edge="1" parent="WIyWlLk6GJQsqaUBKTNV-1" source="RLmuX2d9v1kafcQMtOZq-73">
          <mxGeometry width="160" relative="1" as="geometry">
            <mxPoint x="194" y="420.33000000000004" as="sourcePoint" />
            <mxPoint x="354" y="420.33000000000004" as="targetPoint" />
            <Array as="points">
              <mxPoint x="214" y="420" />
            </Array>
          </mxGeometry>
        </mxCell>
        <mxCell id="RLmuX2d9v1kafcQMtOZq-164" value="1" style="text;strokeColor=none;align=center;fillColor=none;html=1;verticalAlign=middle;whiteSpace=wrap;rounded=0;" vertex="1" parent="WIyWlLk6GJQsqaUBKTNV-1">
          <mxGeometry x="314" y="401" width="18" height="20" as="geometry" />
        </mxCell>
        <mxCell id="RLmuX2d9v1kafcQMtOZq-165" value="0..*" style="text;strokeColor=none;align=center;fillColor=none;html=1;verticalAlign=middle;whiteSpace=wrap;rounded=0;" vertex="1" parent="WIyWlLk6GJQsqaUBKTNV-1">
          <mxGeometry x="184" y="911" width="30" height="20" as="geometry" />
        </mxCell>
        <mxCell id="RLmuX2d9v1kafcQMtOZq-167" value="1" style="text;strokeColor=none;align=center;fillColor=none;html=1;verticalAlign=middle;whiteSpace=wrap;rounded=0;" vertex="1" parent="WIyWlLk6GJQsqaUBKTNV-1">
          <mxGeometry x="574" y="901" width="18" height="20" as="geometry" />
        </mxCell>
        <mxCell id="RLmuX2d9v1kafcQMtOZq-168" value="1" style="text;strokeColor=none;align=center;fillColor=none;html=1;verticalAlign=middle;whiteSpace=wrap;rounded=0;" vertex="1" parent="WIyWlLk6GJQsqaUBKTNV-1">
          <mxGeometry x="334" y="988" width="16" height="20" as="geometry" />
        </mxCell>
        <mxCell id="RLmuX2d9v1kafcQMtOZq-169" value="1" style="text;strokeColor=none;align=center;fillColor=none;html=1;verticalAlign=middle;whiteSpace=wrap;rounded=0;" vertex="1" parent="WIyWlLk6GJQsqaUBKTNV-1">
          <mxGeometry x="604" y="901" width="18" height="20" as="geometry" />
        </mxCell>
        <mxCell id="RLmuX2d9v1kafcQMtOZq-170" value="1" style="text;strokeColor=none;align=center;fillColor=none;html=1;verticalAlign=middle;whiteSpace=wrap;rounded=0;" vertex="1" parent="WIyWlLk6GJQsqaUBKTNV-1">
          <mxGeometry x="676" y="991" width="18" height="20" as="geometry" />
        </mxCell>
        <mxCell id="RLmuX2d9v1kafcQMtOZq-172" value="" style="endArrow=none;endFill=0;endSize=24;html=1;rounded=0;entryX=1;entryY=0.5;entryDx=0;entryDy=0;startFill=0;" edge="1" parent="WIyWlLk6GJQsqaUBKTNV-1" target="RLmuX2d9v1kafcQMtOZq-62">
          <mxGeometry width="160" relative="1" as="geometry">
            <mxPoint x="994" y="740" as="sourcePoint" />
            <mxPoint x="1024" y="861" as="targetPoint" />
            <Array as="points">
              <mxPoint x="994" y="861" />
            </Array>
          </mxGeometry>
        </mxCell>
        <mxCell id="RLmuX2d9v1kafcQMtOZq-173" value="" style="endArrow=none;endFill=0;endSize=24;html=1;rounded=0;entryX=0.698;entryY=-0.003;entryDx=0;entryDy=0;entryPerimeter=0;startFill=0;" edge="1" parent="WIyWlLk6GJQsqaUBKTNV-1" target="RLmuX2d9v1kafcQMtOZq-28">
          <mxGeometry width="160" relative="1" as="geometry">
            <mxPoint x="1024" y="740" as="sourcePoint" />
            <mxPoint x="813" y="981" as="targetPoint" />
            <Array as="points">
              <mxPoint x="1024" y="831" />
              <mxPoint x="1024" y="931" />
              <mxPoint x="894" y="931" />
              <mxPoint x="814" y="931" />
            </Array>
          </mxGeometry>
        </mxCell>
        <mxCell id="RLmuX2d9v1kafcQMtOZq-174" value="" style="endArrow=none;endFill=0;endSize=24;html=1;rounded=0;startFill=0;" edge="1" parent="WIyWlLk6GJQsqaUBKTNV-1">
          <mxGeometry width="160" relative="1" as="geometry">
            <mxPoint x="1054" y="740" as="sourcePoint" />
            <mxPoint x="1054" y="1011" as="targetPoint" />
          </mxGeometry>
        </mxCell>
        <mxCell id="RLmuX2d9v1kafcQMtOZq-180" value="1" style="text;strokeColor=none;align=center;fillColor=none;html=1;verticalAlign=middle;whiteSpace=wrap;rounded=0;" vertex="1" parent="WIyWlLk6GJQsqaUBKTNV-1">
          <mxGeometry x="794" y="941" width="18" height="20" as="geometry" />
        </mxCell>
        <mxCell id="RLmuX2d9v1kafcQMtOZq-181" value="1" style="text;strokeColor=none;align=center;fillColor=none;html=1;verticalAlign=middle;whiteSpace=wrap;rounded=0;" vertex="1" parent="WIyWlLk6GJQsqaUBKTNV-1">
          <mxGeometry x="1037" y="991" width="18" height="20" as="geometry" />
        </mxCell>
        <mxCell id="RLmuX2d9v1kafcQMtOZq-183" value="1" style="text;strokeColor=none;align=center;fillColor=none;html=1;verticalAlign=middle;whiteSpace=wrap;rounded=0;" vertex="1" parent="WIyWlLk6GJQsqaUBKTNV-1">
          <mxGeometry x="672" y="841" width="18" height="20" as="geometry" />
        </mxCell>
        <mxCell id="RLmuX2d9v1kafcQMtOZq-186" value="" style="endArrow=diamondThin;endFill=0;endSize=24;html=1;rounded=0;exitX=0;exitY=0.5;exitDx=0;exitDy=0;entryX=0.75;entryY=1;entryDx=0;entryDy=0;" edge="1" parent="WIyWlLk6GJQsqaUBKTNV-1" source="zkfFHV4jXpPFQw0GAbJ--0" target="RLmuX2d9v1kafcQMtOZq-41">
          <mxGeometry width="160" relative="1" as="geometry">
            <mxPoint x="560" y="451" as="sourcePoint" />
            <mxPoint x="720" y="451" as="targetPoint" />
            <Array as="points">
              <mxPoint x="614" y="431" />
            </Array>
          </mxGeometry>
        </mxCell>
        <mxCell id="RLmuX2d9v1kafcQMtOZq-187" value="1" style="text;strokeColor=none;align=center;fillColor=none;html=1;verticalAlign=middle;whiteSpace=wrap;rounded=0;" vertex="1" parent="WIyWlLk6GJQsqaUBKTNV-1">
          <mxGeometry x="615" y="300" width="18" height="20" as="geometry" />
        </mxCell>
        <mxCell id="RLmuX2d9v1kafcQMtOZq-188" value="0..*" style="text;strokeColor=none;align=center;fillColor=none;html=1;verticalAlign=middle;whiteSpace=wrap;rounded=0;" vertex="1" parent="WIyWlLk6GJQsqaUBKTNV-1">
          <mxGeometry x="770" y="411" width="30" height="20" as="geometry" />
        </mxCell>
        <mxCell id="RLmuX2d9v1kafcQMtOZq-189" value="" style="endArrow=diamondThin;endFill=0;endSize=24;html=1;rounded=0;entryX=0.5;entryY=0;entryDx=0;entryDy=0;exitX=1;exitY=0.5;exitDx=0;exitDy=0;" edge="1" parent="WIyWlLk6GJQsqaUBKTNV-1" source="zkfFHV4jXpPFQw0GAbJ--0" target="RLmuX2d9v1kafcQMtOZq-36">
          <mxGeometry width="160" relative="1" as="geometry">
            <mxPoint x="1104" y="571" as="sourcePoint" />
            <mxPoint x="1264" y="571" as="targetPoint" />
            <Array as="points">
              <mxPoint x="1311" y="431" />
            </Array>
          </mxGeometry>
        </mxCell>
        <mxCell id="RLmuX2d9v1kafcQMtOZq-190" value="1" style="text;strokeColor=none;align=center;fillColor=none;html=1;verticalAlign=middle;whiteSpace=wrap;rounded=0;" vertex="1" parent="WIyWlLk6GJQsqaUBKTNV-1">
          <mxGeometry x="1311" y="582" width="18" height="20" as="geometry" />
        </mxCell>
        <mxCell id="RLmuX2d9v1kafcQMtOZq-191" value="0..*" style="text;strokeColor=none;align=center;fillColor=none;html=1;verticalAlign=middle;whiteSpace=wrap;rounded=0;" vertex="1" parent="WIyWlLk6GJQsqaUBKTNV-1">
          <mxGeometry x="960" y="411" width="30" height="20" as="geometry" />
        </mxCell>
        <mxCell id="RLmuX2d9v1kafcQMtOZq-194" value="1" style="text;strokeColor=none;align=center;fillColor=none;html=1;verticalAlign=middle;whiteSpace=wrap;rounded=0;" vertex="1" parent="WIyWlLk6GJQsqaUBKTNV-1">
          <mxGeometry x="1212" y="648" width="18" height="20" as="geometry" />
        </mxCell>
        <mxCell id="RLmuX2d9v1kafcQMtOZq-195" value="1" style="text;strokeColor=none;align=center;fillColor=none;html=1;verticalAlign=middle;whiteSpace=wrap;rounded=0;" vertex="1" parent="WIyWlLk6GJQsqaUBKTNV-1">
          <mxGeometry x="1080" y="648" width="18" height="20" as="geometry" />
        </mxCell>
        <mxCell id="RLmuX2d9v1kafcQMtOZq-196" value="1" style="text;strokeColor=none;align=center;fillColor=none;html=1;verticalAlign=middle;whiteSpace=wrap;rounded=0;" vertex="1" parent="WIyWlLk6GJQsqaUBKTNV-1">
          <mxGeometry x="976" y="740" width="18" height="20" as="geometry" />
        </mxCell>
        <mxCell id="RLmuX2d9v1kafcQMtOZq-198" value="1" style="text;strokeColor=none;align=center;fillColor=none;html=1;verticalAlign=middle;whiteSpace=wrap;rounded=0;" vertex="1" parent="WIyWlLk6GJQsqaUBKTNV-1">
          <mxGeometry x="1006" y="740" width="18" height="20" as="geometry" />
        </mxCell>
        <mxCell id="RLmuX2d9v1kafcQMtOZq-201" value="1" style="text;strokeColor=none;align=center;fillColor=none;html=1;verticalAlign=middle;whiteSpace=wrap;rounded=0;" vertex="1" parent="WIyWlLk6GJQsqaUBKTNV-1">
          <mxGeometry x="1036" y="739" width="18" height="20" as="geometry" />
        </mxCell>
        <mxCell id="RLmuX2d9v1kafcQMtOZq-202" value="1" style="text;strokeColor=none;align=center;fillColor=none;html=1;verticalAlign=middle;whiteSpace=wrap;rounded=0;" vertex="1" parent="WIyWlLk6GJQsqaUBKTNV-1">
          <mxGeometry x="518" y="618" width="18" height="20" as="geometry" />
        </mxCell>
        <mxCell id="RLmuX2d9v1kafcQMtOZq-203" value="1" style="text;strokeColor=none;align=center;fillColor=none;html=1;verticalAlign=middle;whiteSpace=wrap;rounded=0;" vertex="1" parent="WIyWlLk6GJQsqaUBKTNV-1">
          <mxGeometry x="662" y="618" width="18" height="20" as="geometry" />
        </mxCell>
        <mxCell id="RLmuX2d9v1kafcQMtOZq-204" value="1" style="text;strokeColor=none;align=center;fillColor=none;html=1;verticalAlign=middle;whiteSpace=wrap;rounded=0;" vertex="1" parent="WIyWlLk6GJQsqaUBKTNV-1">
          <mxGeometry x="432" y="461" width="18" height="20" as="geometry" />
        </mxCell>
        <mxCell id="RLmuX2d9v1kafcQMtOZq-205" value="1" style="text;strokeColor=none;align=center;fillColor=none;html=1;verticalAlign=middle;whiteSpace=wrap;rounded=0;" vertex="1" parent="WIyWlLk6GJQsqaUBKTNV-1">
          <mxGeometry x="432" y="559" width="18" height="20" as="geometry" />
        </mxCell>
        <mxCell id="RLmuX2d9v1kafcQMtOZq-206" value="1" style="text;strokeColor=none;align=center;fillColor=none;html=1;verticalAlign=middle;whiteSpace=wrap;rounded=0;" vertex="1" parent="WIyWlLk6GJQsqaUBKTNV-1">
          <mxGeometry x="1126" y="1025" width="18" height="20" as="geometry" />
        </mxCell>
        <mxCell id="RLmuX2d9v1kafcQMtOZq-207" value="1" style="text;strokeColor=none;align=center;fillColor=none;html=1;verticalAlign=middle;whiteSpace=wrap;rounded=0;" vertex="1" parent="WIyWlLk6GJQsqaUBKTNV-1">
          <mxGeometry x="1304" y="861" width="18" height="20" as="geometry" />
        </mxCell>
        <mxCell id="RLmuX2d9v1kafcQMtOZq-229" value="&lt;&lt;control&gt;&gt;&#xa;Control::Logout" style="swimlane;fontStyle=0;align=center;verticalAlign=top;childLayout=stackLayout;horizontal=1;startSize=40;horizontalStack=0;resizeParent=1;resizeLast=0;collapsible=1;marginBottom=0;rounded=0;shadow=0;strokeWidth=1;" vertex="1" parent="WIyWlLk6GJQsqaUBKTNV-1">
          <mxGeometry x="1098" y="143" width="160" height="77" as="geometry">
            <mxRectangle x="230" y="140" width="160" height="26" as="alternateBounds" />
          </mxGeometry>
        </mxCell>
        <mxCell id="RLmuX2d9v1kafcQMtOZq-230" value="" style="line;html=1;strokeWidth=1;align=left;verticalAlign=middle;spacingTop=-1;spacingLeft=3;spacingRight=3;rotatable=0;labelPosition=right;points=[];portConstraint=eastwest;" vertex="1" parent="RLmuX2d9v1kafcQMtOZq-229">
          <mxGeometry y="40" width="160" height="10" as="geometry" />
        </mxCell>
        <mxCell id="RLmuX2d9v1kafcQMtOZq-324" value="LogoutUser()" style="text;align=left;verticalAlign=middle;spacingLeft=4;spacingRight=4;overflow=hidden;rotatable=0;points=[[0,0.5],[1,0.5]];portConstraint=eastwest;" vertex="1" parent="RLmuX2d9v1kafcQMtOZq-229">
          <mxGeometry y="50" width="160" height="20" as="geometry" />
        </mxCell>
        <mxCell id="RLmuX2d9v1kafcQMtOZq-234" value="1" style="text;strokeColor=none;align=center;fillColor=none;html=1;verticalAlign=middle;whiteSpace=wrap;rounded=0;" vertex="1" parent="WIyWlLk6GJQsqaUBKTNV-1">
          <mxGeometry x="574" y="271" width="18" height="20" as="geometry" />
        </mxCell>
        <mxCell id="RLmuX2d9v1kafcQMtOZq-237" value="1" style="text;strokeColor=none;align=center;fillColor=none;html=1;verticalAlign=middle;whiteSpace=wrap;rounded=0;" vertex="1" parent="WIyWlLk6GJQsqaUBKTNV-1">
          <mxGeometry x="1080" y="167.73" width="18" height="20" as="geometry" />
        </mxCell>
        <mxCell id="RLmuX2d9v1kafcQMtOZq-238" value="1" style="text;strokeColor=none;align=center;fillColor=none;html=1;verticalAlign=middle;whiteSpace=wrap;rounded=0;" vertex="1" parent="WIyWlLk6GJQsqaUBKTNV-1">
          <mxGeometry x="966" y="167.73" width="18" height="20" as="geometry" />
        </mxCell>
        <mxCell id="RLmuX2d9v1kafcQMtOZq-240" style="edgeStyle=orthogonalEdgeStyle;rounded=0;orthogonalLoop=1;jettySize=auto;html=1;exitX=0.5;exitY=0;exitDx=0;exitDy=0;entryX=0.538;entryY=0;entryDx=0;entryDy=0;entryPerimeter=0;endArrow=none;startFill=0;" edge="1" parent="WIyWlLk6GJQsqaUBKTNV-1" source="RLmuX2d9v1kafcQMtOZq-41" target="RLmuX2d9v1kafcQMtOZq-229">
          <mxGeometry relative="1" as="geometry" />
        </mxCell>
        <mxCell id="RLmuX2d9v1kafcQMtOZq-241" value="1" style="text;strokeColor=none;align=center;fillColor=none;html=1;verticalAlign=middle;whiteSpace=wrap;rounded=0;" vertex="1" parent="WIyWlLk6GJQsqaUBKTNV-1">
          <mxGeometry x="556" y="91" width="18" height="20" as="geometry" />
        </mxCell>
        <mxCell id="RLmuX2d9v1kafcQMtOZq-242" value="1" style="text;strokeColor=none;align=center;fillColor=none;html=1;verticalAlign=middle;whiteSpace=wrap;rounded=0;" vertex="1" parent="WIyWlLk6GJQsqaUBKTNV-1">
          <mxGeometry x="1184" y="123" width="18" height="20" as="geometry" />
        </mxCell>
        <mxCell id="RLmuX2d9v1kafcQMtOZq-257" value="1" style="text;strokeColor=none;align=center;fillColor=none;html=1;verticalAlign=middle;whiteSpace=wrap;rounded=0;" vertex="1" parent="WIyWlLk6GJQsqaUBKTNV-1">
          <mxGeometry x="743" y="701" width="18" height="20" as="geometry" />
        </mxCell>
        <mxCell id="RLmuX2d9v1kafcQMtOZq-258" value="0..*" style="text;strokeColor=none;align=center;fillColor=none;html=1;verticalAlign=middle;whiteSpace=wrap;rounded=0;" vertex="1" parent="WIyWlLk6GJQsqaUBKTNV-1">
          <mxGeometry x="225" y="911" width="29" height="20" as="geometry" />
        </mxCell>
        <mxCell id="RLmuX2d9v1kafcQMtOZq-259" value="" style="endArrow=diamondThin;endFill=0;endSize=24;html=1;rounded=0;exitX=1;exitY=1;exitDx=0;exitDy=0;" edge="1" parent="WIyWlLk6GJQsqaUBKTNV-1" source="RLmuX2d9v1kafcQMtOZq-258">
          <mxGeometry width="160" relative="1" as="geometry">
            <mxPoint x="264" y="782" as="sourcePoint" />
            <mxPoint x="761" y="672" as="targetPoint" />
            <Array as="points">
              <mxPoint x="254" y="851" />
              <mxPoint x="254" y="761" />
              <mxPoint x="761" y="761" />
            </Array>
          </mxGeometry>
        </mxCell>
        <mxCell id="RLmuX2d9v1kafcQMtOZq-261" value="" style="endArrow=diamondThin;endFill=0;endSize=24;html=1;rounded=0;exitX=0.75;exitY=0;exitDx=0;exitDy=0;" edge="1" parent="WIyWlLk6GJQsqaUBKTNV-1" source="RLmuX2d9v1kafcQMtOZq-73">
          <mxGeometry width="160" relative="1" as="geometry">
            <mxPoint x="450" y="982" as="sourcePoint" />
            <mxPoint x="957" y="740" as="targetPoint" />
            <Array as="points">
              <mxPoint x="294" y="871" />
              <mxPoint x="294" y="801" />
              <mxPoint x="634" y="801" />
              <mxPoint x="957" y="801" />
            </Array>
          </mxGeometry>
        </mxCell>
        <mxCell id="RLmuX2d9v1kafcQMtOZq-262" value="0..*" style="text;strokeColor=none;align=center;fillColor=none;html=1;verticalAlign=middle;whiteSpace=wrap;rounded=0;" vertex="1" parent="WIyWlLk6GJQsqaUBKTNV-1">
          <mxGeometry x="265" y="911" width="29" height="20" as="geometry" />
        </mxCell>
        <mxCell id="RLmuX2d9v1kafcQMtOZq-263" value="1" style="text;strokeColor=none;align=center;fillColor=none;html=1;verticalAlign=middle;whiteSpace=wrap;rounded=0;" vertex="1" parent="WIyWlLk6GJQsqaUBKTNV-1">
          <mxGeometry x="937" y="766" width="18" height="20" as="geometry" />
        </mxCell>
        <mxCell id="RLmuX2d9v1kafcQMtOZq-264" value="" style="triangle;aspect=fixed;fillColor=strokeColor;flipH=1;" vertex="1" parent="WIyWlLk6GJQsqaUBKTNV-1">
          <mxGeometry x="512" y="743" width="5" height="10" as="geometry" />
        </mxCell>
        <mxCell id="RLmuX2d9v1kafcQMtOZq-266" value="enroll" style="text;html=1;align=center;verticalAlign=middle;resizable=0;points=[];autosize=1;strokeColor=none;fillColor=none;" vertex="1" parent="WIyWlLk6GJQsqaUBKTNV-1">
          <mxGeometry x="489.5" y="716" width="50" height="30" as="geometry" />
        </mxCell>
        <mxCell id="RLmuX2d9v1kafcQMtOZq-267" value="" style="triangle;aspect=fixed;fillColor=strokeColor;flipH=1;" vertex="1" parent="WIyWlLk6GJQsqaUBKTNV-1">
          <mxGeometry x="622" y="786" width="5" height="10" as="geometry" />
        </mxCell>
        <mxCell id="RLmuX2d9v1kafcQMtOZq-268" value="rent" style="text;html=1;align=center;verticalAlign=middle;resizable=0;points=[];autosize=1;strokeColor=none;fillColor=none;" vertex="1" parent="WIyWlLk6GJQsqaUBKTNV-1">
          <mxGeometry x="604" y="759" width="40" height="30" as="geometry" />
        </mxCell>
        <mxCell id="RLmuX2d9v1kafcQMtOZq-274" value="" style="triangle;aspect=fixed;fillColor=strokeColor;" vertex="1" parent="WIyWlLk6GJQsqaUBKTNV-1">
          <mxGeometry x="680" y="411" width="6" height="12" as="geometry" />
        </mxCell>
        <mxCell id="RLmuX2d9v1kafcQMtOZq-276" value="find a user to login" style="text;html=1;align=center;verticalAlign=middle;resizable=0;points=[];autosize=1;strokeColor=none;fillColor=none;" vertex="1" parent="WIyWlLk6GJQsqaUBKTNV-1">
          <mxGeometry x="621" y="381" width="120" height="30" as="geometry" />
        </mxCell>
        <mxCell id="RLmuX2d9v1kafcQMtOZq-279" value="" style="triangle;aspect=fixed;fillColor=strokeColor;flipH=1;" vertex="1" parent="WIyWlLk6GJQsqaUBKTNV-1">
          <mxGeometry x="1164" y="413" width="5" height="10" as="geometry" />
        </mxCell>
        <mxCell id="RLmuX2d9v1kafcQMtOZq-280" value="check duplicate users" style="text;html=1;align=center;verticalAlign=middle;resizable=0;points=[];autosize=1;strokeColor=none;fillColor=none;" vertex="1" parent="WIyWlLk6GJQsqaUBKTNV-1">
          <mxGeometry x="1096.5" y="383" width="140" height="30" as="geometry" />
        </mxCell>
        <mxCell id="RLmuX2d9v1kafcQMtOZq-281" value="" style="triangle;aspect=fixed;fillColor=strokeColor;flipH=1;" vertex="1" parent="WIyWlLk6GJQsqaUBKTNV-1">
          <mxGeometry x="1147.5" y="650" width="5" height="10" as="geometry" />
        </mxCell>
        <mxCell id="RLmuX2d9v1kafcQMtOZq-282" value="create new member" style="text;html=1;align=center;verticalAlign=middle;resizable=0;points=[];autosize=1;strokeColor=none;fillColor=none;" vertex="1" parent="WIyWlLk6GJQsqaUBKTNV-1">
          <mxGeometry x="1085" y="620" width="130" height="30" as="geometry" />
        </mxCell>
        <mxCell id="RLmuX2d9v1kafcQMtOZq-283" value="" style="triangle;aspect=fixed;fillColor=strokeColor;flipH=1;" vertex="1" parent="WIyWlLk6GJQsqaUBKTNV-1">
          <mxGeometry x="861.5" y="73" width="5" height="10" as="geometry" />
        </mxCell>
        <mxCell id="RLmuX2d9v1kafcQMtOZq-284" value="reset connected user" style="text;html=1;align=center;verticalAlign=middle;resizable=0;points=[];autosize=1;strokeColor=none;fillColor=none;" vertex="1" parent="WIyWlLk6GJQsqaUBKTNV-1">
          <mxGeometry x="794" y="43" width="140" height="30" as="geometry" />
        </mxCell>
        <mxCell id="RLmuX2d9v1kafcQMtOZq-287" value="" style="triangle;aspect=fixed;fillColor=strokeColor;flipH=1;" vertex="1" parent="WIyWlLk6GJQsqaUBKTNV-1">
          <mxGeometry x="1024" y="171" width="5" height="10" as="geometry" />
        </mxCell>
        <mxCell id="RLmuX2d9v1kafcQMtOZq-288" value="display" style="text;html=1;align=center;verticalAlign=middle;resizable=0;points=[];autosize=1;strokeColor=none;fillColor=none;" vertex="1" parent="WIyWlLk6GJQsqaUBKTNV-1">
          <mxGeometry x="996.5" y="141" width="60" height="30" as="geometry" />
        </mxCell>
        <mxCell id="RLmuX2d9v1kafcQMtOZq-290" value="" style="triangle;aspect=fixed;fillColor=strokeColor;flipH=1;" vertex="1" parent="WIyWlLk6GJQsqaUBKTNV-1">
          <mxGeometry x="596.5" y="620" width="5" height="10" as="geometry" />
        </mxCell>
        <mxCell id="RLmuX2d9v1kafcQMtOZq-291" value="access" style="text;html=1;align=center;verticalAlign=middle;resizable=0;points=[];autosize=1;strokeColor=none;fillColor=none;" vertex="1" parent="WIyWlLk6GJQsqaUBKTNV-1">
          <mxGeometry x="569" y="593" width="60" height="30" as="geometry" />
        </mxCell>
        <mxCell id="RLmuX2d9v1kafcQMtOZq-292" value="" style="triangle;aspect=fixed;fillColor=strokeColor;flipH=1;" vertex="1" parent="WIyWlLk6GJQsqaUBKTNV-1">
          <mxGeometry x="954" y="913" width="5" height="10" as="geometry" />
        </mxCell>
        <mxCell id="RLmuX2d9v1kafcQMtOZq-293" value="access" style="text;html=1;align=center;verticalAlign=middle;resizable=0;points=[];autosize=1;strokeColor=none;fillColor=none;" vertex="1" parent="WIyWlLk6GJQsqaUBKTNV-1">
          <mxGeometry x="926.5" y="886" width="60" height="30" as="geometry" />
        </mxCell>
        <mxCell id="RLmuX2d9v1kafcQMtOZq-296" value="" style="triangle;aspect=fixed;fillColor=strokeColor;flipH=1;direction=south;" vertex="1" parent="WIyWlLk6GJQsqaUBKTNV-1">
          <mxGeometry x="256.5" y="619" width="10" height="5" as="geometry" />
        </mxCell>
        <mxCell id="RLmuX2d9v1kafcQMtOZq-297" value="check&amp;nbsp;&lt;div&gt;duplicate bikes&lt;/div&gt;" style="text;html=1;align=center;verticalAlign=middle;resizable=0;points=[];autosize=1;strokeColor=none;fillColor=none;" vertex="1" parent="WIyWlLk6GJQsqaUBKTNV-1">
          <mxGeometry x="214" y="579" width="100" height="40" as="geometry" />
        </mxCell>
        <mxCell id="RLmuX2d9v1kafcQMtOZq-299" value="" style="triangle;aspect=fixed;fillColor=strokeColor;flipH=1;direction=south;flipV=1;" vertex="1" parent="WIyWlLk6GJQsqaUBKTNV-1">
          <mxGeometry x="526" y="336" width="10" height="5" as="geometry" />
        </mxCell>
        <mxCell id="RLmuX2d9v1kafcQMtOZq-300" value="check admin" style="text;html=1;align=center;verticalAlign=middle;resizable=0;points=[];autosize=1;strokeColor=none;fillColor=none;" vertex="1" parent="WIyWlLk6GJQsqaUBKTNV-1">
          <mxGeometry x="482" y="336" width="90" height="30" as="geometry" />
        </mxCell>
        <mxCell id="RLmuX2d9v1kafcQMtOZq-302" value="" style="triangle;aspect=fixed;fillColor=strokeColor;flipH=1;direction=south;flipV=1;" vertex="1" parent="WIyWlLk6GJQsqaUBKTNV-1">
          <mxGeometry x="118" y="581" width="10" height="5" as="geometry" />
        </mxCell>
        <mxCell id="RLmuX2d9v1kafcQMtOZq-303" value="get session info" style="text;html=1;align=center;verticalAlign=middle;resizable=0;points=[];autosize=1;strokeColor=none;fillColor=none;" vertex="1" parent="WIyWlLk6GJQsqaUBKTNV-1">
          <mxGeometry x="64" y="581" width="110" height="30" as="geometry" />
        </mxCell>
        <mxCell id="RLmuX2d9v1kafcQMtOZq-308" value="" style="triangle;aspect=fixed;fillColor=strokeColor;" vertex="1" parent="WIyWlLk6GJQsqaUBKTNV-1">
          <mxGeometry x="1229" y="1023" width="6" height="12" as="geometry" />
        </mxCell>
        <mxCell id="RLmuX2d9v1kafcQMtOZq-309" value="display" style="text;html=1;align=center;verticalAlign=middle;resizable=0;points=[];autosize=1;strokeColor=none;fillColor=none;" vertex="1" parent="WIyWlLk6GJQsqaUBKTNV-1">
          <mxGeometry x="1201" y="994" width="60" height="30" as="geometry" />
        </mxCell>
        <mxCell id="RLmuX2d9v1kafcQMtOZq-314" value="" style="triangle;aspect=fixed;fillColor=strokeColor;flipH=1;" vertex="1" parent="WIyWlLk6GJQsqaUBKTNV-1">
          <mxGeometry x="472" y="992" width="5" height="10" as="geometry" />
        </mxCell>
        <mxCell id="RLmuX2d9v1kafcQMtOZq-315" value="set rent member" style="text;html=1;align=center;verticalAlign=middle;resizable=0;points=[];autosize=1;strokeColor=none;fillColor=none;" vertex="1" parent="WIyWlLk6GJQsqaUBKTNV-1">
          <mxGeometry x="419" y="965" width="110" height="30" as="geometry" />
        </mxCell>
        <mxCell id="RLmuX2d9v1kafcQMtOZq-316" value="" style="triangle;aspect=fixed;fillColor=strokeColor;flipH=1;direction=south;flipV=1;" vertex="1" parent="WIyWlLk6GJQsqaUBKTNV-1">
          <mxGeometry x="1080" y="848.5" width="10" height="5" as="geometry" />
        </mxCell>
        <mxCell id="RLmuX2d9v1kafcQMtOZq-317" value="get retal&lt;div&gt;&lt;span style=&quot;background-color: transparent; color: light-dark(rgb(0, 0, 0), rgb(255, 255, 255));&quot;&gt;bike list&lt;/span&gt;&lt;/div&gt;" style="text;html=1;align=center;verticalAlign=middle;resizable=0;points=[];autosize=1;strokeColor=none;fillColor=none;" vertex="1" parent="WIyWlLk6GJQsqaUBKTNV-1">
          <mxGeometry x="1050" y="853.5" width="70" height="40" as="geometry" />
        </mxCell>
        <mxCell id="RLmuX2d9v1kafcQMtOZq-321" value="" style="triangle;aspect=fixed;fillColor=strokeColor;" vertex="1" parent="WIyWlLk6GJQsqaUBKTNV-1">
          <mxGeometry x="862" y="841.5" width="6" height="12" as="geometry" />
        </mxCell>
        <mxCell id="RLmuX2d9v1kafcQMtOZq-322" value="add rent bike info" style="text;html=1;align=center;verticalAlign=middle;resizable=0;points=[];autosize=1;strokeColor=none;fillColor=none;" vertex="1" parent="WIyWlLk6GJQsqaUBKTNV-1">
          <mxGeometry x="804" y="812.5" width="120" height="30" as="geometry" />
        </mxCell>
      </root>
    </mxGraphModel>
  </diagram>
</mxfile>
